<svg xmlns="http://www.w3.org/2000/svg" width="250" height="250" viewBox="0 0 250 250">
  <g id="Group_5" data-name="Group 5" transform="translate(-1537 -370)">
    <g id="Group_4" data-name="Group 4" transform="translate(461 -6)">
      <circle id="Ellipse_1" data-name="Ellipse 1" cx="125" cy="125" r="125" transform="translate(1076 376)" fill="#ed6b66"/>
    </g>
    <g id="list-filled" transform="translate(1568 401)">
      <rect id="Rectangle_2" data-name="Rectangle 2" width="189" height="189" fill="none"/>
      <path id="Path_3" data-name="Path 3" d="M31.271,3.7H7.652A4.738,4.738,0,0,0,2.928,8.424V32.043a4.738,4.738,0,0,0,4.724,4.724H31.271a4.738,4.738,0,0,0,4.724-4.724V8.424A4.738,4.738,0,0,0,31.271,3.7ZM7.652,52.512H31.271a4.737,4.737,0,0,1,4.724,4.723V80.854a4.738,4.738,0,0,1-4.724,4.724H7.652a4.738,4.738,0,0,1-4.724-4.724V57.235A4.737,4.737,0,0,1,7.652,52.512Zm0,48.812H31.271a4.738,4.738,0,0,1,4.724,4.724v23.619a4.738,4.738,0,0,1-4.724,4.724H7.652a4.738,4.738,0,0,1-4.724-4.724V106.047A4.738,4.738,0,0,1,7.652,101.323ZM56.464,24.957h86.6a4.724,4.724,0,0,0,0-9.447h-86.6a4.724,4.724,0,1,0,0,9.447Zm0,39.364h86.6a4.724,4.724,0,0,1,0,9.447h-86.6a4.724,4.724,0,1,1,0-9.447Zm0,48.812h86.6a4.724,4.724,0,0,1,0,9.447h-86.6a4.724,4.724,0,1,1,0-9.447Z" transform="translate(20.125 25.431)" fill="#fff" fill-rule="evenodd"/>
    </g>
  </g>
</svg>
